<?xml version="1.0" encoding="utf-8"?>
<!-- Generator: Adobe Illustrator 17.0.2, SVG Export Plug-In . SVG Version: 6.00 Build 0)  -->
<!DOCTYPE svg PUBLIC "-//W3C//DTD SVG 1.1//EN" "http://www.w3.org/Graphics/SVG/1.1/DTD/svg11.dtd">
<svg version="1.1" id="Layer_1" xmlns="http://www.w3.org/2000/svg" xmlns:xlink="http://www.w3.org/1999/xlink" x="0px" y="0px"
	 width="841.89px" height="595.28px" viewBox="0 0 841.89 595.28" enable-background="new 0 0 841.89 595.28" xml:space="preserve">
<path d="M245.375,107.146c0,0-208.701,23.041-235.287,188.762c0,0-18.516,130.604,164.159,182.797c0,0-50.018-71.765,2.175-98.949
	c0-6.524,68.503-17.398,100.037,40.232c0,0,20.66-58.717,81.551-29.359c0,0,36.97,26.096,66.329,98.949
	c0,0,84.814-182.675,147.88-67.416c0,0,71.765-97.862,128.308-11.961c0,0,9.236,29.694-29.366,67.126
	c-0.468-1.638,155.242-33.692,162.587-145.509c0,0,49.787-161.234-229.347-224.673c0,0,73.456,79.393-35.912,127.547
	c0,0-69.375,13.059-82.434-31.015c0,0-12.563-96.469-13.059-113.449c0,0-16.324,15.507-27.75,44.074h-44.89
	c0,0-9.794-38.36-22.853-44.074c0,0-5.182,52.61-6.569,67.522c-0.378,4.063,0.531-4.744,0.531-4.744l0.328-5.904
	c0,0-4.083,82.693-33.466,83.509c0,0-84.093,26.965-109.368-44.074C228.957,186.538,208.741,146.915,245.375,107.146z"/>
</svg>
