<?xml version="1.0" encoding="utf-8"?>
<!-- Generator: Adobe Illustrator 17.0.2, SVG Export Plug-In . SVG Version: 6.00 Build 0)  -->
<!DOCTYPE svg PUBLIC "-//W3C//DTD SVG 1.1//EN" "http://www.w3.org/Graphics/SVG/1.1/DTD/svg11.dtd">
<svg version="1.1" xmlns="http://www.w3.org/2000/svg" xmlns:xlink="http://www.w3.org/1999/xlink" x="0px" y="0px" width="612px"
	 height="792px" viewBox="0 0 612 792" enable-background="new 0 0 612 792" xml:space="preserve">
<g id="Layer_1">
</g>
<g id="Layer_2">
	<path d="M240.124,163.534c0,0-74.512,8.226-84.004,67.393c0,0-6.611,46.629,58.609,65.264c0,0-17.858-25.622,0.776-35.328
		c0-2.329,24.458-6.211,35.716,14.364c0,0,7.376-20.964,29.116-10.482c0,0,13.199,9.317,23.681,35.328
		c0,0,30.281-65.22,52.797-24.069c0,0,25.622-34.939,45.809-4.27c0,0,3.297,10.602-10.485,23.966
		c-0.167-0.585,55.426-12.029,58.048-51.951c0,0,17.775-57.565-81.883-80.214c0,0,26.226,28.345-12.822,45.538
		c0,0-24.769,4.662-29.431-11.073c0,0-4.485-34.442-4.662-40.504c0,0-5.828,5.537-9.908,15.736h-16.027
		c0,0-3.497-13.696-8.159-15.736c0,0-1.85,18.783-2.345,24.107c-0.135,1.451,0.19-1.694,0.19-1.694l0.117-2.108
		c0,0-1.458,29.524-11.948,29.815c0,0-30.024,9.627-39.047-15.736C234.262,191.88,227.045,177.733,240.124,163.534z"/>
	<path fill="none" stroke="#000000" stroke-miterlimit="10" d="M239.556,162.861"/>
</g>
</svg>
